<svg width="118" height="118" viewBox="0 0 118 118" fill="none" xmlns="http://www.w3.org/2000/svg">
<circle cx="59" cy="59" r="59" fill="#FFE5B3"/>
<path fill-rule="evenodd" clip-rule="evenodd" d="M53.0626 25.75C45.8188 25.75 38.8718 28.6276 33.7497 33.7496C28.6276 38.8717 25.7501 45.8188 25.7501 53.0625V55.523C24.306 56.3568 23.1068 57.5561 22.2731 59.0002C21.4394 60.4443 21.0005 62.0825 21.0005 63.75C21.0005 65.4175 21.4394 67.0557 22.2731 68.4998C23.1068 69.9439 24.306 71.1432 25.7501 71.977V79.1875C25.7501 82.6519 27.1263 85.9744 29.576 88.4241C32.0257 90.8738 35.3482 92.25 38.8126 92.25H79.1876C82.652 92.25 85.9745 90.8738 88.4242 88.4241C90.8738 85.9744 92.2501 82.6519 92.2501 79.1875V71.977C93.6941 71.1432 94.8933 69.9439 95.727 68.4998C96.5607 67.0557 96.9997 65.4175 96.9997 63.75C96.9997 62.0825 96.5607 60.4443 95.727 59.0002C94.8933 57.5561 93.6941 56.3568 92.2501 55.523V53.0625C92.2501 45.8188 89.3725 38.8717 84.2504 33.7496C79.1283 28.6276 72.1813 25.75 64.9376 25.75H53.0626ZM87.5001 61.375H30.5001C29.8702 61.375 29.2661 61.6252 28.8207 62.0706C28.3753 62.516 28.1251 63.1201 28.1251 63.75C28.1251 64.3799 28.3753 64.984 28.8207 65.4294C29.2661 65.8748 29.8702 66.125 30.5001 66.125H87.5001C88.13 66.125 88.7341 65.8748 89.1795 65.4294C89.6249 64.984 89.8751 64.3799 89.8751 63.75C89.8751 63.1201 89.6249 62.516 89.1795 62.0706C88.7341 61.6252 88.13 61.375 87.5001 61.375ZM85.1251 54.25V53.0625C85.1251 47.7084 82.9982 42.5737 79.2123 38.7878C75.4264 35.0019 70.2916 32.875 64.9376 32.875H53.0626C47.7085 32.875 42.5737 35.0019 38.7879 38.7878C35.002 42.5737 32.8751 47.7084 32.8751 53.0625V54.25H85.1251ZM73.2501 73.25H85.1251V79.1875C85.1251 82.465 82.4651 85.125 79.1876 85.125H38.8126C35.5351 85.125 32.8751 82.465 32.8751 79.1875V73.25H63.7501L68.5001 78L73.2501 73.25Z" fill="#F1BD58"/>
</svg>
